<svg id="Layer_1" data-name="Layer 1" xmlns="http://www.w3.org/2000/svg" viewBox="0 0 470.67 81"><path d="M35.87,57.36h1.9V59.9a2.55,2.55,0,0,0,2.53,2.53h6.33a2.55,2.55,0,0,0,2.53-2.53V57.36h1.9a5.06,5.06,0,0,0,5.06-5V16.85a5,5,0,0,0-5-5.05s0,0,0,0V9.27a2.54,2.54,0,0,0-2.5-2.53H38.4a2.53,2.53,0,0,0-2.53,2.53V11.8a5,5,0,0,0-5.06,5V52.29a5.06,5.06,0,0,0,5,5.07ZM84,77.62h-.21A30.32,30.32,0,0,0,61.18,27V37.12a20.25,20.25,0,1,1,0,40.5h-43a7.58,7.58,0,0,0-7.62,7.55v0a2.55,2.55,0,0,0,2.53,2.53H89a2.55,2.55,0,0,0,2.53-2.53A7.59,7.59,0,0,0,84,77.61ZM27,72.55h33a1.26,1.26,0,0,0,1.26-1.26h0V68.74a1.25,1.25,0,0,0-1.25-1.27H27a1.26,1.26,0,0,0-1.26,1.27v2.52A1.26,1.26,0,0,0,27,72.54h0Z" transform="translate(-10.56 -6.74)" style="fill:#fff"/><path d="M111.22,31h5.22V67.08h17.28v4.38h-22.5Z" transform="translate(-10.56 -6.74)" style="fill:#fff"/><path d="M155.43,71.46,155,67.79h-.18A10.79,10.79,0,0,1,146,72.12c-5.88,0-8.88-4.14-8.88-8.34,0-7,6.24-10.86,17.45-10.8v-.6c0-2.4-.65-6.72-6.59-6.72a14.47,14.47,0,0,0-7.56,2.16l-1.2-3.48a18,18,0,0,1,9.53-2.58c8.88,0,11,6.06,11,11.88V64.5a40.89,40.89,0,0,0,.48,7Zm-.78-14.82c-5.75-.12-12.29.9-12.29,6.53a4.66,4.66,0,0,0,5,5,7.22,7.22,0,0,0,7-4.85,5.57,5.57,0,0,0,.3-1.69Z" transform="translate(-10.56 -6.74)" style="fill:#fff"/><path d="M168.28,50.28c0-3-.06-5.46-.24-7.86h4.68l.3,4.8h.12a10.67,10.67,0,0,1,9.59-5.46c4,0,10.26,2.4,10.26,12.36V71.46h-5.28V54.72c0-4.68-1.74-8.58-6.72-8.58a7.49,7.49,0,0,0-7.07,5.4,7.59,7.59,0,0,0-.36,2.46V71.46h-5.28Z" transform="translate(-10.56 -6.74)" style="fill:#fff"/><path d="M226.59,42.42c-.12,2.1-.24,4.44-.24,8V67.25c0,6.67-1.32,10.75-4.14,13.26S215.31,84,211.65,84c-3.48,0-7.32-.84-9.65-2.4l1.31-4a16.48,16.48,0,0,0,8.52,2.27c5.4,0,9.36-2.81,9.36-10.14V66.48h-.12a10.38,10.38,0,0,1-9.24,4.85c-7.2,0-12.35-6.12-12.35-14.15,0-9.84,6.42-15.42,13.07-15.42,5,0,7.8,2.64,9.06,5h.12l.24-4.38Zm-5.46,11.46a7.52,7.52,0,0,0-.3-2.4,7.61,7.61,0,0,0-7.38-5.58c-5,0-8.64,4.26-8.64,11,0,5.7,2.88,10.44,8.58,10.44a7.72,7.72,0,0,0,7.32-5.4,9.19,9.19,0,0,0,.42-2.82Z" transform="translate(-10.56 -6.74)" style="fill:#fff"/><path d="M259.41,63.54c0,3,.06,5.63.24,7.92H255l-.3-4.75h-.12a10.93,10.93,0,0,1-9.6,5.41c-4.56,0-10-2.53-10-12.72v-17h5.28V58.5c0,5.52,1.68,9.24,6.48,9.24a7.63,7.63,0,0,0,7-4.8,7.72,7.72,0,0,0,.48-2.7V42.42h5.28Z" transform="translate(-10.56 -6.74)" style="fill:#fff"/><path d="M284.25,71.46l-.42-3.67h-.18a10.8,10.8,0,0,1-8.88,4.33c-5.88,0-8.88-4.14-8.88-8.34,0-7,6.24-10.86,17.46-10.8v-.6c0-2.4-.66-6.72-6.6-6.72a14.47,14.47,0,0,0-7.56,2.16L268,44.34a18,18,0,0,1,9.54-2.58c8.88,0,11,6.06,11,11.88V64.5a40.89,40.89,0,0,0,.48,7Zm-.78-14.82c-5.76-.12-12.3.9-12.3,6.53a4.67,4.67,0,0,0,5,5,7.22,7.22,0,0,0,7-4.85,5.57,5.57,0,0,0,.3-1.69Z" transform="translate(-10.56 -6.74)" style="fill:#fff"/><path d="M322.11,42.42c-.12,2.1-.24,4.44-.24,8V67.25c0,6.67-1.32,10.75-4.14,13.26S310.83,84,307.17,84c-3.48,0-7.32-.84-9.66-2.4l1.32-4a16.48,16.48,0,0,0,8.52,2.27c5.4,0,9.36-2.81,9.36-10.14V66.48h-.12a10.38,10.38,0,0,1-9.24,4.85c-7.2,0-12.36-6.12-12.36-14.15,0-9.84,6.42-15.42,13.08-15.42,5,0,7.8,2.64,9.06,5h.12l.24-4.38Zm-5.46,11.46a7.52,7.52,0,0,0-.3-2.4A7.61,7.61,0,0,0,309,45.9c-5,0-8.64,4.26-8.64,11,0,5.7,2.88,10.44,8.58,10.44a7.72,7.72,0,0,0,7.32-5.4,9.19,9.19,0,0,0,.42-2.82Z" transform="translate(-10.56 -6.74)" style="fill:#fff"/><path d="M333.57,57.9c.12,7.14,4.68,10.08,10,10.08a19.09,19.09,0,0,0,8-1.5l.9,3.77a23.52,23.52,0,0,1-9.66,1.8c-8.94,0-14.28-5.87-14.28-14.63s5.16-15.66,13.62-15.66c9.48,0,12,8.34,12,13.68A19.91,19.91,0,0,1,354,57.9Zm15.48-3.78c.06-3.36-1.38-8.58-7.32-8.58-5.34,0-7.68,4.92-8.1,8.58Z" transform="translate(-10.56 -6.74)" style="fill:#fff"/><path d="M373.59,31h5.22V67.08h17.28v4.38h-22.5Z" transform="translate(-10.56 -6.74)" style="fill:#fff"/><path d="M403.83,57.9C404,65,408.51,68,413.79,68a19.09,19.09,0,0,0,8-1.5l.9,3.77a23.52,23.52,0,0,1-9.66,1.8c-8.94,0-14.28-5.87-14.28-14.63S404,41.76,412.41,41.76c9.48,0,12,8.34,12,13.68a19.91,19.91,0,0,1-.18,2.46Zm15.48-3.78c.06-3.36-1.38-8.58-7.32-8.58-5.34,0-7.68,4.92-8.1,8.58Z" transform="translate(-10.56 -6.74)" style="fill:#fff"/><path d="M431,50.28c0-3-.06-5.46-.24-7.86h4.68l.3,4.8h.12a10.68,10.68,0,0,1,9.6-5.46c4,0,10.26,2.4,10.26,12.36V71.46h-5.28V54.72c0-4.68-1.74-8.58-6.72-8.58a7.5,7.5,0,0,0-7.08,5.4,7.59,7.59,0,0,0-.36,2.46V71.46H431Z" transform="translate(-10.56 -6.74)" style="fill:#fff"/><path d="M463.53,66.06a13.84,13.84,0,0,0,7,2.1c3.84,0,5.64-1.92,5.64-4.33s-1.5-3.89-5.4-5.33c-5.22-1.86-7.68-4.74-7.68-8.22,0-4.68,3.78-8.52,10-8.52a14.49,14.49,0,0,1,7.14,1.8l-1.32,3.84A11.3,11.3,0,0,0,473,45.72c-3.12,0-4.86,1.8-4.86,4,0,2.4,1.74,3.48,5.52,4.92,5,1.92,7.62,4.44,7.62,8.76,0,5.1-4,8.69-10.86,8.69a16.56,16.56,0,0,1-8.16-2Z" transform="translate(-10.56 -6.74)" style="fill:#fff"/></svg>