<svg id="Layer_1" data-name="Layer 1" xmlns="http://www.w3.org/2000/svg" viewBox="0 0 623 94.47"><path d="M68.31,73.62h1.9v2.54a2.54,2.54,0,0,0,2.53,2.53h6.33a2.54,2.54,0,0,0,2.53-2.53V73.62h1.9a5.05,5.05,0,0,0,5.06-5.06V33.12a5.05,5.05,0,0,0-5.06-5.06V25.53A2.54,2.54,0,0,0,81,23H70.84a2.54,2.54,0,0,0-2.53,2.53v2.53a5.05,5.05,0,0,0-5.06,5.06V68.56A5.05,5.05,0,0,0,68.31,73.62Zm48.1,20.26h-.21A30.33,30.33,0,0,0,93.62,43.25V53.38a20.25,20.25,0,1,1,0,40.5h-43A7.59,7.59,0,0,0,43,101.47,2.54,2.54,0,0,0,45.53,104h75.94a2.54,2.54,0,0,0,2.53-2.53A7.59,7.59,0,0,0,116.41,93.88Zm-57-5.07H92.36a1.26,1.26,0,0,0,1.26-1.26V85a1.26,1.26,0,0,0-1.26-1.27H59.45A1.27,1.27,0,0,0,58.19,85v2.53A1.27,1.27,0,0,0,59.45,88.81Z" transform="translate(-43 -23)" style="fill:#fff"/><text transform="translate(136.47 74.49)" style="font-size:72px;fill:#fff;font-family:Lato-Semibold, Lato;font-weight:600">Langua<tspan x="228.09" y="0" style="letter-spacing:-0.008504231770833334em">g</tspan><tspan x="265.24" y="0">e </tspan><tspan x="321.4" y="0" style="letter-spacing:-0.030992296006944444em">L</tspan><tspan x="356.36" y="0" style="letter-spacing:0.000013563368055555555em">ens</tspan></text></svg>