<svg id="Layer_1" data-name="Layer 1" xmlns="http://www.w3.org/2000/svg" viewBox="0 0 384 512"><path d="M181.9,256.1c-5-16-4.9-46.9-2-46.9C188.3,209.2,187.5,246.1,181.9,256.1Zm-1.7,47.2c-7.7,20.2-17.3,43.3-28.4,62.7,18.3-7,39-17.2,62.9-21.9-12.7-9.6-24.9-23.4-34.5-40.8ZM86.1,428.1c0,.8,13.2-5.4,34.9-40.2C114.3,394.2,91.9,412.4,86.1,428.1ZM248,160H384V488a23.94,23.94,0,0,1-24,24H24A23.94,23.94,0,0,1,0,488V24A23.94,23.94,0,0,1,24,0H224V136A24.07,24.07,0,0,0,248,160Zm-8,171.8c-20-12.2-33.3-29-42.7-53.8,4.5-18.5,11.6-46.6,6.2-64.2-4.7-29.4-42.4-26.5-47.8-6.8-5,18.3-.4,44.1,8.1,77-11.6,27.6-28.7,64.6-40.8,85.8-.1,0-.1.1-.2.1-27.1,13.9-73.6,44.5-54.5,68,5.6,6.9,16,10,21.5,10,17.9,0,35.7-18,61.1-61.8,25.8-8.5,54.1-19.1,79-23.2,21.7,11.8,47.1,19.5,64,19.5,29.2,0,31.2-32,19.7-43.4C299.7,325.4,259.3,329.3,240,331.8ZM377,105,279,7a24,24,0,0,0-17-7h-6V128H384v-6.1A23.92,23.92,0,0,0,377,105ZM302.9,360.3c4.1-2.7-2.5-11.9-42.8-9C297.2,367.1,302.9,360.3,302.9,360.3Z" style="fill:#374151"/></svg>