<svg id="Layer_1" data-name="Layer 1" xmlns="http://www.w3.org/2000/svg" viewBox="0 0 640 512"><path d="M288,320c0-65.45,39.59-121.68,96-146.44V160H248a24.07,24.07,0,0,1-24-24V0H24A23.94,23.94,0,0,0,0,23.88V488a23.94,23.94,0,0,0,23.88,24H360a23.94,23.94,0,0,0,24-23.88V466.44C327.59,441.69,288,385.45,288,320Zm96-198.1a23.9,23.9,0,0,0-7-16.9L279.1,7a24,24,0,0,0-17-7H256V128H384ZM635.31,462.06,557.9,384.65A126.65,126.65,0,0,0,576,320,128,128,0,1,0,448,448c23.7,0,45.61-6.88,64.65-18.11l77.41,77.42a16,16,0,0,0,22.63,0h0l22.62-22.62a16,16,0,0,0,0-22.63ZM448,384a64,64,0,1,1,64-64A64,64,0,0,1,448,384Z" transform="translate(0 0)" style="fill:#fff"/></svg>