<?xml version="1.0" encoding="utf-8"?>
<!-- Generator: Adobe Illustrator 24.1.3, SVG Export Plug-In . SVG Version: 6.00 Build 0)  -->
<svg version="1.1" id="Layer_1" xmlns="http://www.w3.org/2000/svg" xmlns:xlink="http://www.w3.org/1999/xlink" x="0px" y="0px"
	 viewBox="0 0 512 512" style="enable-background:new 0 0 512 512;" xml:space="preserve">
<style type="text/css">
	.st0{fill:#374151;}
</style>
<path class="st0" d="M160,320h12v16c0,8.8,7.2,16,16,16h40c8.8,0,16-7.2,16-16v-16h12c17.7,0,32-14.3,32-32V64c0-17.7-14.3-32-32-32
	V16c0-8.8-7.2-16-16-16h-64c-8.8,0-16,7.2-16,16v16c-17.7,0-32,14.3-32,32v224C128,305.7,142.3,320,160,320z M464,448h-1.3
	c30.5-34,49.3-78.8,49.3-128c0-105.9-86.1-192-192-192v64c70.6,0,128,57.4,128,128s-57.4,128-128,128H48c-26.5,0-48,21.5-48,48
	c0,8.8,7.2,16,16,16h480c8.8,0,16-7.2,16-16C512,469.5,490.5,448,464,448z M104,416h208c4.4,0,8-3.6,8-8v-16c0-4.4-3.6-8-8-8H104
	c-4.4,0-8,3.6-8,8v16C96,412.4,99.6,416,104,416z"/>
</svg>
