<svg id="Layer_1" data-name="Layer 1" xmlns="http://www.w3.org/2000/svg" viewBox="0 0 351.91 512"><path d="M202,0C122.2,0,70.5,32.7,29.91,91a24,24,0,0,0,5.18,32.87l43.14,32.71a24,24,0,0,0,33.25-4.15c25-31.38,43.63-49.45,82.76-49.45,30.76,0,68.82,19.8,68.82,49.63,0,22.56-18.62,34.14-49,51.17-35.42,19.86-82.3,44.57-82.3,106.4V320a24,24,0,0,0,24,24h72.48a24,24,0,0,0,24-24v-5.77c0-42.86,125.26-44.65,125.26-160.63C377.5,66.26,286.9,0,202,0ZM192,373.46a69.27,69.27,0,1,0,69.27,69.27A69.34,69.34,0,0,0,192,373.46Z" transform="translate(-25.6)" style="fill:#fff"/></svg>