<?xml version="1.0" encoding="utf-8"?>
<!-- Generator: Adobe Illustrator 24.1.3, SVG Export Plug-In . SVG Version: 6.00 Build 0)  -->
<svg version="1.1" id="Layer_1" xmlns="http://www.w3.org/2000/svg" xmlns:xlink="http://www.w3.org/1999/xlink" x="0px" y="0px"
	 viewBox="0 0 640 512" style="enable-background:new 0 0 640 512;" xml:space="preserve">
<style type="text/css">
	.st0{fill:#374151;}
</style>
<path class="st0" d="M380.4,92.1L74.3,241.7c-8.3,4.1-12.3,13.3-9.1,21l8.7,21.1L9.9,310.4c-8.2,3.4-12,12.7-8.7,20.9l20.1,48.4
	c3.4,8.2,12.7,12,20.9,8.7l64.1-26.6L115,383c3.2,7.8,12.5,11.5,21.3,8.5l127-43.6c0.2,0.2,0.4,0.5,0.6,0.7l-47.5,142.4
	c-2.8,8.4,1.7,17.4,10.1,20.2c1.6,0.5,3.3,0.8,5.1,0.8h16.9c6.9,0,13-4.4,15.2-10.9l42.2-126.5c9.4,1.9,19.1,1.9,28.4,0l42.2,126.5
	c2.2,6.5,8.3,10.9,15.2,10.9h16.9c8.8,0,16-7.2,16-16c0-1.7-0.3-3.4-0.8-5.1l-47.5-142.4c10.2-12.6,15.8-28.3,15.9-44.5
	c0-0.1,0-0.3,0-0.4l66.6-22.9L380.4,92.1z M320,328c-13.3,0-24-10.7-24-24s10.7-24,24-24s24,10.7,24,24C344,317.2,333.2,328,320,328
	z M638.8,216.8L553.1,9.9c-3.4-8.2-12.7-12-20.9-8.7c0,0,0,0,0,0L414.8,49.8c-8.2,3.4-12,12.7-8.7,20.9l85.7,206.9
	c3.4,8.2,12.7,12,20.9,8.7l117.3-48.6C638.3,234.4,642.2,225,638.8,216.8C638.8,216.8,638.8,216.8,638.8,216.8z"/>
</svg>
